<?xml version="1.0" encoding="UTF-8" standalone="no"?>
<!DOCTYPE svg PUBLIC "-//W3C//DTD SVG 1.1//EN" "http://www.w3.org/Graphics/SVG/1.1/DTD/svg11.dtd">
<svg width="100%" height="100%" viewBox="0 0 754 197" version="1.1" xmlns="http://www.w3.org/2000/svg" xmlns:xlink="http://www.w3.org/1999/xlink" xml:space="preserve" xmlns:serif="http://www.serif.com/" style="fill-rule:evenodd;clip-rule:evenodd;stroke-linejoin:round;stroke-miterlimit:2;">
    <g transform="matrix(11.2556,0,0,11.2556,-1760.21,-1919.29)">
        <g transform="matrix(12,0,0,12,156.458,186.839)">
            <path d="M0.668,-0.907L0.744,-0.905L0.809,-0.891C0.809,-0.889 0.818,-0.885 0.838,-0.881C0.838,-0.878 0.845,-0.875 0.859,-0.874L0.863,-0.868L0.863,-0.864C0.854,-0.835 0.85,-0.818 0.85,-0.811C0.846,-0.806 0.841,-0.782 0.834,-0.737C0.828,-0.693 0.823,-0.67 0.818,-0.67C0.79,-0.682 0.768,-0.688 0.754,-0.688C0.742,-0.693 0.729,-0.696 0.717,-0.696L0.619,-0.696C0.573,-0.689 0.543,-0.683 0.529,-0.676C0.52,-0.676 0.497,-0.668 0.461,-0.653L0.434,-0.639C0.415,-0.631 0.391,-0.616 0.359,-0.592C0.312,-0.553 0.279,-0.514 0.262,-0.475C0.245,-0.441 0.236,-0.414 0.236,-0.393C0.235,-0.393 0.233,-0.378 0.23,-0.348C0.236,-0.307 0.245,-0.278 0.258,-0.26C0.274,-0.232 0.301,-0.21 0.338,-0.196C0.338,-0.194 0.359,-0.189 0.4,-0.182L0.469,-0.192L0.512,-0.204C0.512,-0.207 0.52,-0.211 0.535,-0.215C0.59,-0.245 0.617,-0.269 0.617,-0.29L0.615,-0.29L0.477,-0.266L0.402,-0.252L0.381,-0.247L0.377,-0.247L0.371,-0.252L0.371,-0.258C0.378,-0.293 0.382,-0.345 0.385,-0.415C0.385,-0.422 0.398,-0.427 0.426,-0.428C0.436,-0.433 0.455,-0.437 0.482,-0.44C0.485,-0.443 0.502,-0.446 0.531,-0.45C0.531,-0.452 0.548,-0.456 0.582,-0.459C0.582,-0.462 0.6,-0.465 0.635,-0.469C0.643,-0.472 0.66,-0.476 0.688,-0.479C0.688,-0.483 0.704,-0.485 0.736,-0.487C0.752,-0.492 0.776,-0.496 0.809,-0.5C0.809,-0.503 0.823,-0.505 0.852,-0.506C0.869,-0.513 0.89,-0.516 0.914,-0.516L0.932,-0.522L0.943,-0.522L0.949,-0.516C0.944,-0.5 0.938,-0.467 0.932,-0.418C0.926,-0.362 0.921,-0.334 0.916,-0.334L0.893,-0.334C0.86,-0.331 0.844,-0.323 0.844,-0.313C0.844,-0.307 0.837,-0.29 0.824,-0.26C0.806,-0.219 0.78,-0.178 0.746,-0.139C0.712,-0.104 0.679,-0.076 0.648,-0.057C0.613,-0.035 0.577,-0.018 0.541,-0.006L0.516,0.001C0.516,0.005 0.504,0.007 0.48,0.009C0.48,0.013 0.457,0.017 0.41,0.021C0.41,0.023 0.406,0.024 0.396,0.024L0.393,0.024L0.393,0.022L0.373,0.024L0.346,0.024C0.27,0.019 0.232,0.013 0.232,0.007C0.224,0.007 0.213,0.004 0.197,-0.002C0.169,-0.011 0.137,-0.029 0.102,-0.057C0.071,-0.084 0.05,-0.112 0.037,-0.139C0.027,-0.159 0.019,-0.178 0.014,-0.196C0.005,-0.235 0,-0.266 0,-0.29L0,-0.299L0.002,-0.352L0.004,-0.352L0.002,-0.358L0.02,-0.448C0.033,-0.481 0.039,-0.501 0.039,-0.508C0.042,-0.511 0.053,-0.531 0.07,-0.571C0.074,-0.571 0.077,-0.577 0.08,-0.588C0.084,-0.591 0.098,-0.611 0.121,-0.649L0.166,-0.698C0.229,-0.758 0.267,-0.789 0.279,-0.79C0.288,-0.799 0.311,-0.814 0.35,-0.833C0.38,-0.848 0.401,-0.857 0.412,-0.86C0.412,-0.862 0.421,-0.866 0.439,-0.87C0.439,-0.872 0.449,-0.875 0.469,-0.879C0.469,-0.883 0.48,-0.886 0.504,-0.887C0.508,-0.892 0.536,-0.898 0.588,-0.905L0.668,-0.907Z" style="fill:rgb(169,0,17);fill-rule:nonzero;"/>
        </g>
        <g transform="matrix(12,0,0,12,167.73,185.595)">
            <path d="M0.459,-0.903C0.522,-0.903 0.57,-0.899 0.604,-0.891C0.614,-0.891 0.629,-0.888 0.648,-0.881C0.655,-0.881 0.665,-0.878 0.68,-0.872C0.685,-0.872 0.701,-0.865 0.729,-0.852C0.76,-0.835 0.784,-0.816 0.801,-0.795C0.822,-0.768 0.832,-0.745 0.832,-0.727C0.836,-0.727 0.839,-0.714 0.84,-0.688C0.84,-0.675 0.837,-0.654 0.83,-0.625C0.815,-0.583 0.799,-0.553 0.781,-0.536C0.751,-0.498 0.723,-0.472 0.699,-0.458C0.682,-0.443 0.659,-0.429 0.629,-0.415C0.61,-0.404 0.581,-0.394 0.543,-0.383L0.543,-0.377C0.556,-0.361 0.593,-0.326 0.652,-0.272C0.659,-0.264 0.678,-0.248 0.711,-0.223C0.724,-0.209 0.76,-0.181 0.82,-0.137L0.82,-0.127C0.799,-0.102 0.789,-0.087 0.789,-0.083L0.717,0.001L0.697,0.019L0.695,0.019C0.63,-0.032 0.531,-0.121 0.398,-0.249L0.334,-0.319L0.332,-0.317L0.33,-0.317L0.332,-0.274L0.332,-0.026L0.324,-0.018L0.109,-0.018L0.104,-0.024L0.111,-0.319C0.11,-0.43 0.107,-0.499 0.104,-0.524L0.105,-0.526L0.105,-0.528L0.104,-0.608L0.104,-0.62L0.1,-0.624L0.096,-0.624C0.092,-0.618 0.08,-0.614 0.061,-0.61C0.061,-0.607 0.051,-0.604 0.031,-0.6C0.031,-0.597 0.028,-0.596 0.021,-0.596L0.018,-0.6L0.018,-0.614L0.016,-0.622L0.018,-0.624C0.018,-0.656 0.012,-0.714 0.002,-0.799C0.021,-0.808 0.035,-0.813 0.043,-0.813C0.049,-0.818 0.061,-0.823 0.078,-0.827L0.141,-0.848L0.168,-0.856C0.168,-0.859 0.181,-0.862 0.207,-0.866C0.211,-0.869 0.24,-0.876 0.293,-0.887L0.373,-0.901L0.459,-0.903ZM0.309,-0.697L0.311,-0.678L0.311,-0.641C0.311,-0.609 0.313,-0.577 0.318,-0.543L0.316,-0.535L0.32,-0.514L0.318,-0.506L0.324,-0.5L0.326,-0.5L0.367,-0.51C0.376,-0.51 0.39,-0.513 0.408,-0.52C0.413,-0.52 0.435,-0.527 0.473,-0.541C0.512,-0.557 0.541,-0.575 0.561,-0.596C0.576,-0.613 0.584,-0.629 0.584,-0.645L0.586,-0.652L0.586,-0.666C0.578,-0.684 0.568,-0.696 0.557,-0.701C0.549,-0.708 0.522,-0.715 0.477,-0.721C0.38,-0.714 0.332,-0.707 0.332,-0.701C0.319,-0.701 0.312,-0.7 0.309,-0.697Z" style="fill:rgb(169,0,17);fill-rule:nonzero;"/>
        </g>
        <g transform="matrix(12,0,0,12,178.159,184.44)">
            <path d="M0.459,-0.903C0.522,-0.903 0.57,-0.899 0.604,-0.891C0.614,-0.891 0.629,-0.888 0.648,-0.881C0.655,-0.881 0.665,-0.878 0.68,-0.872C0.685,-0.872 0.701,-0.865 0.729,-0.852C0.76,-0.835 0.784,-0.816 0.801,-0.795C0.822,-0.768 0.832,-0.745 0.832,-0.727C0.836,-0.727 0.839,-0.714 0.84,-0.688C0.84,-0.675 0.837,-0.654 0.83,-0.625C0.815,-0.583 0.799,-0.553 0.781,-0.536C0.751,-0.498 0.723,-0.472 0.699,-0.458C0.682,-0.443 0.659,-0.429 0.629,-0.415C0.61,-0.404 0.581,-0.394 0.543,-0.383L0.543,-0.377C0.556,-0.361 0.593,-0.326 0.652,-0.272C0.659,-0.264 0.678,-0.248 0.711,-0.223C0.724,-0.209 0.76,-0.181 0.82,-0.137L0.82,-0.127C0.799,-0.102 0.789,-0.087 0.789,-0.083L0.717,0.001L0.697,0.019L0.695,0.019C0.63,-0.032 0.531,-0.121 0.398,-0.249L0.334,-0.319L0.332,-0.317L0.33,-0.317L0.332,-0.274L0.332,-0.026L0.324,-0.018L0.109,-0.018L0.104,-0.024L0.111,-0.319C0.11,-0.43 0.107,-0.499 0.104,-0.524L0.105,-0.526L0.105,-0.528L0.104,-0.608L0.104,-0.62L0.1,-0.624L0.096,-0.624C0.092,-0.618 0.08,-0.614 0.061,-0.61C0.061,-0.607 0.051,-0.604 0.031,-0.6C0.031,-0.597 0.028,-0.596 0.021,-0.596L0.018,-0.6L0.018,-0.614L0.016,-0.622L0.018,-0.624C0.018,-0.656 0.012,-0.714 0.002,-0.799C0.021,-0.808 0.035,-0.813 0.043,-0.813C0.049,-0.818 0.061,-0.823 0.078,-0.827L0.141,-0.848L0.168,-0.856C0.168,-0.859 0.181,-0.862 0.207,-0.866C0.211,-0.869 0.24,-0.876 0.293,-0.887L0.373,-0.901L0.459,-0.903ZM0.309,-0.697L0.311,-0.678L0.311,-0.641C0.311,-0.609 0.313,-0.577 0.318,-0.543L0.316,-0.535L0.32,-0.514L0.318,-0.506L0.324,-0.5L0.326,-0.5L0.367,-0.51C0.376,-0.51 0.39,-0.513 0.408,-0.52C0.413,-0.52 0.435,-0.527 0.473,-0.541C0.512,-0.557 0.541,-0.575 0.561,-0.596C0.576,-0.613 0.584,-0.629 0.584,-0.645L0.586,-0.652L0.586,-0.666C0.578,-0.684 0.568,-0.696 0.557,-0.701C0.549,-0.708 0.522,-0.715 0.477,-0.721C0.38,-0.714 0.332,-0.707 0.332,-0.701C0.319,-0.701 0.312,-0.7 0.309,-0.697Z" style="fill:rgb(169,0,17);fill-rule:nonzero;"/>
        </g>
        <g transform="matrix(12,0,0,12,188.323,183.463)">
            <path d="M0.668,-0.907L0.744,-0.905L0.809,-0.891C0.809,-0.889 0.818,-0.885 0.838,-0.881C0.838,-0.878 0.845,-0.875 0.859,-0.874L0.863,-0.868L0.863,-0.864C0.854,-0.835 0.85,-0.818 0.85,-0.811C0.846,-0.806 0.841,-0.782 0.834,-0.737C0.828,-0.693 0.823,-0.67 0.818,-0.67C0.79,-0.682 0.768,-0.688 0.754,-0.688C0.742,-0.693 0.729,-0.696 0.717,-0.696L0.619,-0.696C0.573,-0.689 0.543,-0.683 0.529,-0.676C0.52,-0.676 0.497,-0.668 0.461,-0.653L0.434,-0.639C0.415,-0.631 0.391,-0.616 0.359,-0.592C0.312,-0.553 0.279,-0.514 0.262,-0.475C0.245,-0.441 0.236,-0.414 0.236,-0.393C0.235,-0.393 0.233,-0.378 0.23,-0.348C0.236,-0.307 0.245,-0.278 0.258,-0.26C0.274,-0.232 0.301,-0.21 0.338,-0.196C0.338,-0.194 0.359,-0.189 0.4,-0.182L0.469,-0.192L0.512,-0.204C0.512,-0.207 0.52,-0.211 0.535,-0.215C0.59,-0.245 0.617,-0.269 0.617,-0.29L0.615,-0.29L0.477,-0.266L0.402,-0.252L0.381,-0.247L0.377,-0.247L0.371,-0.252L0.371,-0.258C0.378,-0.293 0.382,-0.345 0.385,-0.415C0.385,-0.422 0.398,-0.427 0.426,-0.428C0.436,-0.433 0.455,-0.437 0.482,-0.44C0.485,-0.443 0.502,-0.446 0.531,-0.45C0.531,-0.452 0.548,-0.456 0.582,-0.459C0.582,-0.462 0.6,-0.465 0.635,-0.469C0.643,-0.472 0.66,-0.476 0.688,-0.479C0.688,-0.483 0.704,-0.485 0.736,-0.487C0.752,-0.492 0.776,-0.496 0.809,-0.5C0.809,-0.503 0.823,-0.505 0.852,-0.506C0.869,-0.513 0.89,-0.516 0.914,-0.516L0.932,-0.522L0.943,-0.522L0.949,-0.516C0.944,-0.5 0.938,-0.467 0.932,-0.418C0.926,-0.362 0.921,-0.334 0.916,-0.334L0.893,-0.334C0.86,-0.331 0.844,-0.323 0.844,-0.313C0.844,-0.307 0.837,-0.29 0.824,-0.26C0.806,-0.219 0.78,-0.178 0.746,-0.139C0.712,-0.104 0.679,-0.076 0.648,-0.057C0.613,-0.035 0.577,-0.018 0.541,-0.006L0.516,0.001C0.516,0.005 0.504,0.007 0.48,0.009C0.48,0.013 0.457,0.017 0.41,0.021C0.41,0.023 0.406,0.024 0.396,0.024L0.393,0.024L0.393,0.022L0.373,0.024L0.346,0.024C0.27,0.019 0.232,0.013 0.232,0.007C0.224,0.007 0.213,0.004 0.197,-0.002C0.169,-0.011 0.137,-0.029 0.102,-0.057C0.071,-0.084 0.05,-0.112 0.037,-0.139C0.027,-0.159 0.019,-0.178 0.014,-0.196C0.005,-0.235 0,-0.266 0,-0.29L0,-0.299L0.002,-0.352L0.004,-0.352L0.002,-0.358L0.02,-0.448C0.033,-0.481 0.039,-0.501 0.039,-0.508C0.042,-0.511 0.053,-0.531 0.07,-0.571C0.074,-0.571 0.077,-0.577 0.08,-0.588C0.084,-0.591 0.098,-0.611 0.121,-0.649L0.166,-0.698C0.229,-0.758 0.267,-0.789 0.279,-0.79C0.288,-0.799 0.311,-0.814 0.35,-0.833C0.38,-0.848 0.401,-0.857 0.412,-0.86C0.412,-0.862 0.421,-0.866 0.439,-0.87C0.439,-0.872 0.449,-0.875 0.469,-0.879C0.469,-0.883 0.48,-0.886 0.504,-0.887C0.508,-0.892 0.536,-0.898 0.588,-0.905L0.668,-0.907Z" style="fill:rgb(169,0,17);fill-rule:nonzero;"/>
        </g>
        <g transform="matrix(12,0,0,12,199.772,182.841)">
            <path d="M0.291,-0.904L0.297,-0.896L0.291,-0.553L0.293,-0.551L0.318,-0.551C0.376,-0.557 0.42,-0.561 0.451,-0.561C0.518,-0.564 0.551,-0.569 0.551,-0.574L0.551,-0.641L0.557,-0.859L0.557,-0.891C0.557,-0.898 0.559,-0.902 0.564,-0.904L0.682,-0.902C0.722,-0.9 0.749,-0.895 0.764,-0.889L0.766,-0.689L0.766,-0.645C0.772,-0.429 0.778,-0.304 0.783,-0.268L0.781,-0.266L0.781,-0.264L0.795,-0.055L0.795,-0.039L0.797,-0.027C0.797,-0.02 0.781,-0.015 0.75,-0.012C0.738,-0.012 0.71,-0.008 0.668,-0L0.598,0.013C0.593,0.017 0.588,0.019 0.582,0.019C0.572,0.019 0.566,0.01 0.566,-0.008L0.568,-0.01L0.557,-0.254L0.557,-0.361L0.553,-0.373L0.533,-0.371L0.451,-0.371C0.411,-0.371 0.372,-0.368 0.336,-0.361L0.33,-0.363L0.313,-0.361L0.299,-0.361L0.295,-0.357L0.295,-0.15L0.297,-0.014L0.289,-0.01L0.268,-0.012L0.266,-0.01L0.264,-0.01C0.223,-0.016 0.165,-0.02 0.092,-0.02L0.074,-0.02L0.068,-0.025L0.068,-0.059C0.075,-0.109 0.079,-0.159 0.082,-0.209L0.08,-0.211C0.085,-0.243 0.088,-0.274 0.088,-0.307L0.088,-0.334L0.086,-0.344C0.05,-0.342 0.028,-0.34 0.018,-0.336L0.016,-0.336C0.012,-0.337 0.01,-0.341 0.01,-0.348L0.01,-0.365C0.01,-0.416 0.007,-0.462 0,-0.504C0,-0.516 0.021,-0.521 0.063,-0.521C0.063,-0.524 0.07,-0.525 0.086,-0.525L0.086,-0.527L0.088,-0.535L0.08,-0.865L0.078,-0.873C0.078,-0.887 0.102,-0.895 0.15,-0.895C0.15,-0.9 0.197,-0.903 0.291,-0.904Z" style="fill:rgb(169,0,17);fill-rule:nonzero;"/>
        </g>
        <g transform="matrix(12,0,0,12,210.022,182.841)">
            <path d="M0.133,-0.941L0.359,-0.941L0.365,-0.936L0.365,-0.928C0.36,-0.915 0.352,-0.889 0.342,-0.85C0.33,-0.817 0.324,-0.795 0.324,-0.783C0.32,-0.783 0.316,-0.77 0.313,-0.742C0.309,-0.737 0.303,-0.711 0.293,-0.664C0.289,-0.656 0.286,-0.643 0.285,-0.625C0.279,-0.612 0.275,-0.595 0.275,-0.576C0.271,-0.572 0.268,-0.551 0.264,-0.514C0.26,-0.514 0.258,-0.495 0.256,-0.459C0.251,-0.451 0.245,-0.41 0.238,-0.338C0.238,-0.321 0.23,-0.313 0.213,-0.313C0.197,-0.313 0.181,-0.309 0.166,-0.303C0.157,-0.303 0.145,-0.299 0.131,-0.293C0.124,-0.293 0.108,-0.286 0.084,-0.273L0.076,-0.277L0.078,-0.359L0.078,-0.443L0.082,-0.488L0.08,-0.494C0.085,-0.528 0.088,-0.561 0.088,-0.592L0.088,-0.615L0.102,-0.762C0.105,-0.769 0.108,-0.794 0.109,-0.836C0.116,-0.854 0.119,-0.877 0.119,-0.904C0.125,-0.929 0.13,-0.941 0.133,-0.941ZM0.201,-0.227C0.245,-0.221 0.268,-0.216 0.268,-0.213C0.292,-0.204 0.309,-0.192 0.316,-0.178C0.323,-0.165 0.326,-0.156 0.326,-0.15L0.326,-0.145C0.32,-0.112 0.313,-0.096 0.307,-0.096C0.307,-0.089 0.288,-0.07 0.25,-0.039C0.243,-0.039 0.236,-0.036 0.23,-0.029C0.227,-0.029 0.219,-0.026 0.209,-0.02L0.18,-0.01L0.139,-0L0.121,-0C0.111,-0 0.091,-0.003 0.061,-0.01C0.052,-0.016 0.044,-0.02 0.037,-0.02C0.012,-0.043 0,-0.063 0,-0.078L0,-0.107C0.015,-0.15 0.04,-0.179 0.074,-0.195C0.074,-0.198 0.078,-0.199 0.086,-0.199C0.09,-0.206 0.107,-0.213 0.137,-0.219L0.201,-0.227Z" style="fill:rgb(169,0,17);fill-rule:nonzero;"/>
        </g>
        <g transform="matrix(12,0,0,12,214.396,182.308)">
            <path d="M0.133,-0.941L0.359,-0.941L0.365,-0.936L0.365,-0.928C0.36,-0.915 0.352,-0.889 0.342,-0.85C0.33,-0.817 0.324,-0.795 0.324,-0.783C0.32,-0.783 0.316,-0.77 0.313,-0.742C0.309,-0.737 0.303,-0.711 0.293,-0.664C0.289,-0.656 0.286,-0.643 0.285,-0.625C0.279,-0.612 0.275,-0.595 0.275,-0.576C0.271,-0.572 0.268,-0.551 0.264,-0.514C0.26,-0.514 0.258,-0.495 0.256,-0.459C0.251,-0.451 0.245,-0.41 0.238,-0.338C0.238,-0.321 0.23,-0.313 0.213,-0.313C0.197,-0.313 0.181,-0.309 0.166,-0.303C0.157,-0.303 0.145,-0.299 0.131,-0.293C0.124,-0.293 0.108,-0.286 0.084,-0.273L0.076,-0.277L0.078,-0.359L0.078,-0.443L0.082,-0.488L0.08,-0.494C0.085,-0.528 0.088,-0.561 0.088,-0.592L0.088,-0.615L0.102,-0.762C0.105,-0.769 0.108,-0.794 0.109,-0.836C0.116,-0.854 0.119,-0.877 0.119,-0.904C0.125,-0.929 0.13,-0.941 0.133,-0.941ZM0.201,-0.227C0.245,-0.221 0.268,-0.216 0.268,-0.213C0.292,-0.204 0.309,-0.192 0.316,-0.178C0.323,-0.165 0.326,-0.156 0.326,-0.15L0.326,-0.145C0.32,-0.112 0.313,-0.096 0.307,-0.096C0.307,-0.089 0.288,-0.07 0.25,-0.039C0.243,-0.039 0.236,-0.036 0.23,-0.029C0.227,-0.029 0.219,-0.026 0.209,-0.02L0.18,-0.01L0.139,-0L0.121,-0C0.111,-0 0.091,-0.003 0.061,-0.01C0.052,-0.016 0.044,-0.02 0.037,-0.02C0.012,-0.043 0,-0.063 0,-0.078L0,-0.107C0.015,-0.15 0.04,-0.179 0.074,-0.195C0.074,-0.198 0.078,-0.199 0.086,-0.199C0.09,-0.206 0.107,-0.213 0.137,-0.219L0.201,-0.227Z" style="fill:rgb(169,0,17);fill-rule:nonzero;"/>
        </g>
        <g transform="matrix(12,0,0,12,218.77,181.864)">
            <path d="M0.133,-0.941L0.359,-0.941L0.365,-0.936L0.365,-0.928C0.36,-0.915 0.352,-0.889 0.342,-0.85C0.33,-0.817 0.324,-0.795 0.324,-0.783C0.32,-0.783 0.316,-0.77 0.313,-0.742C0.309,-0.737 0.303,-0.711 0.293,-0.664C0.289,-0.656 0.286,-0.643 0.285,-0.625C0.279,-0.612 0.275,-0.595 0.275,-0.576C0.271,-0.572 0.268,-0.551 0.264,-0.514C0.26,-0.514 0.258,-0.495 0.256,-0.459C0.251,-0.451 0.245,-0.41 0.238,-0.338C0.238,-0.321 0.23,-0.313 0.213,-0.313C0.197,-0.313 0.181,-0.309 0.166,-0.303C0.157,-0.303 0.145,-0.299 0.131,-0.293C0.124,-0.293 0.108,-0.286 0.084,-0.273L0.076,-0.277L0.078,-0.359L0.078,-0.443L0.082,-0.488L0.08,-0.494C0.085,-0.528 0.088,-0.561 0.088,-0.592L0.088,-0.615L0.102,-0.762C0.105,-0.769 0.108,-0.794 0.109,-0.836C0.116,-0.854 0.119,-0.877 0.119,-0.904C0.125,-0.929 0.13,-0.941 0.133,-0.941ZM0.201,-0.227C0.245,-0.221 0.268,-0.216 0.268,-0.213C0.292,-0.204 0.309,-0.192 0.316,-0.178C0.323,-0.165 0.326,-0.156 0.326,-0.15L0.326,-0.145C0.32,-0.112 0.313,-0.096 0.307,-0.096C0.307,-0.089 0.288,-0.07 0.25,-0.039C0.243,-0.039 0.236,-0.036 0.23,-0.029C0.227,-0.029 0.219,-0.026 0.209,-0.02L0.18,-0.01L0.139,-0L0.121,-0C0.111,-0 0.091,-0.003 0.061,-0.01C0.052,-0.016 0.044,-0.02 0.037,-0.02C0.012,-0.043 0,-0.063 0,-0.078L0,-0.107C0.015,-0.15 0.04,-0.179 0.074,-0.195C0.074,-0.198 0.078,-0.199 0.086,-0.199C0.09,-0.206 0.107,-0.213 0.137,-0.219L0.201,-0.227Z" style="fill:rgb(169,0,17);fill-rule:nonzero;"/>
        </g>
    </g>
    <g transform="matrix(3.20667,0,0,3.20667,-284.012,-1052.84)">
        <g transform="matrix(12,0,0,12,164.282,388.921)">
            <path d="M0.819,-0.912L0.877,-0.9C0.877,-0.897 0.89,-0.895 0.915,-0.893C0.915,-0.888 0.924,-0.884 0.944,-0.883C0.944,-0.879 0.953,-0.876 0.971,-0.873C0.971,-0.87 0.98,-0.866 0.997,-0.861L1.002,-0.85C1.002,-0.842 0.999,-0.826 0.991,-0.803L0.981,-0.766L0.961,-0.697C0.955,-0.669 0.945,-0.637 0.932,-0.602C0.932,-0.595 0.926,-0.572 0.913,-0.531C0.894,-0.479 0.884,-0.444 0.881,-0.428C0.878,-0.427 0.874,-0.416 0.87,-0.395C0.859,-0.368 0.853,-0.35 0.852,-0.338C0.849,-0.338 0.845,-0.327 0.84,-0.307L0.78,-0.135L0.749,-0.051C0.744,-0.031 0.739,-0.021 0.733,-0.021L0.594,-0.01C0.583,-0.003 0.564,-0 0.54,-0C0.54,0.004 0.525,0.007 0.497,0.012C0.495,0.016 0.491,0.018 0.485,0.018L0.479,0.012L0.479,0.004L0.483,-0.045L0.481,-0.047C0.485,-0.07 0.487,-0.113 0.487,-0.176C0.481,-0.358 0.476,-0.449 0.471,-0.449L0.471,-0.467L0.469,-0.477L0.467,-0.477L0.448,-0.42C0.445,-0.42 0.444,-0.411 0.442,-0.395C0.437,-0.394 0.434,-0.383 0.432,-0.363C0.429,-0.363 0.425,-0.352 0.42,-0.33C0.417,-0.329 0.414,-0.318 0.413,-0.295C0.409,-0.295 0.405,-0.281 0.401,-0.254C0.398,-0.254 0.395,-0.24 0.391,-0.213C0.388,-0.213 0.385,-0.197 0.381,-0.166C0.378,-0.166 0.375,-0.149 0.372,-0.115C0.369,-0.115 0.365,-0.096 0.362,-0.057C0.358,-0.051 0.355,-0.028 0.352,0.012L0.338,0.018C0.31,0.012 0.275,0.01 0.233,0.01C0.192,0.01 0.159,0.012 0.135,0.018C0.125,0.018 0.118,-0.001 0.114,-0.037C0.111,-0.037 0.108,-0.05 0.104,-0.076C0.101,-0.076 0.098,-0.09 0.094,-0.117C0.092,-0.117 0.088,-0.133 0.084,-0.164C0.082,-0.164 0.078,-0.18 0.075,-0.211C0.072,-0.211 0.069,-0.226 0.067,-0.256C0.063,-0.259 0.059,-0.279 0.055,-0.316C0.052,-0.321 0.049,-0.342 0.045,-0.379C0.042,-0.379 0.039,-0.397 0.036,-0.434C0.032,-0.434 0.029,-0.454 0.028,-0.496C0.025,-0.496 0.021,-0.525 0.016,-0.582C0.012,-0.605 0.007,-0.66 0,-0.744L0,-0.783L-0.001,-0.85C-0.001,-0.859 0.014,-0.865 0.045,-0.869C0.045,-0.872 0.058,-0.875 0.084,-0.879C0.084,-0.882 0.101,-0.885 0.133,-0.889C0.133,-0.892 0.15,-0.895 0.182,-0.898C0.182,-0.902 0.193,-0.904 0.215,-0.904L0.225,-0.904C0.229,-0.903 0.231,-0.899 0.231,-0.893L0.241,-0.678C0.247,-0.644 0.25,-0.6 0.25,-0.545C0.254,-0.535 0.258,-0.492 0.262,-0.414C0.265,-0.414 0.268,-0.384 0.27,-0.324L0.272,-0.322L0.274,-0.322C0.28,-0.34 0.284,-0.362 0.286,-0.389C0.292,-0.401 0.295,-0.417 0.295,-0.438C0.299,-0.438 0.303,-0.452 0.307,-0.482C0.31,-0.488 0.314,-0.501 0.317,-0.521L0.344,-0.619C0.348,-0.627 0.352,-0.64 0.356,-0.66C0.36,-0.66 0.362,-0.669 0.364,-0.688C0.369,-0.689 0.372,-0.697 0.372,-0.711C0.376,-0.714 0.38,-0.725 0.385,-0.744L0.417,-0.814C0.434,-0.823 0.465,-0.832 0.508,-0.842L0.545,-0.85C0.545,-0.853 0.564,-0.855 0.602,-0.857C0.602,-0.86 0.605,-0.861 0.612,-0.861L0.614,-0.861C0.617,-0.861 0.621,-0.844 0.624,-0.811C0.626,-0.811 0.63,-0.776 0.633,-0.707C0.637,-0.692 0.639,-0.672 0.639,-0.648L0.639,-0.625C0.639,-0.587 0.642,-0.522 0.649,-0.43L0.647,-0.416L0.649,-0.375L0.647,-0.336L0.653,-0.332L0.674,-0.406L0.713,-0.537L0.723,-0.568L0.733,-0.604C0.733,-0.61 0.736,-0.621 0.743,-0.637L0.762,-0.711L0.788,-0.803L0.795,-0.838C0.798,-0.838 0.802,-0.85 0.805,-0.875C0.808,-0.875 0.811,-0.886 0.813,-0.908L0.819,-0.912Z" style="fill:rgb(169,0,17);fill-rule:nonzero;"/>
        </g>
        <g transform="matrix(12,0,0,12,176.621,388.921)">
            <path d="M0.291,-0.904L0.297,-0.896L0.291,-0.553L0.293,-0.551L0.318,-0.551C0.376,-0.557 0.42,-0.561 0.451,-0.561C0.518,-0.564 0.551,-0.569 0.551,-0.574L0.551,-0.641L0.557,-0.859L0.557,-0.891C0.557,-0.898 0.559,-0.902 0.564,-0.904L0.682,-0.902C0.722,-0.9 0.749,-0.895 0.764,-0.889L0.766,-0.689L0.766,-0.645C0.772,-0.429 0.778,-0.304 0.783,-0.268L0.781,-0.266L0.781,-0.264L0.795,-0.055L0.795,-0.039L0.797,-0.027C0.797,-0.02 0.781,-0.015 0.75,-0.012C0.738,-0.012 0.71,-0.008 0.668,-0L0.598,0.013C0.593,0.017 0.588,0.019 0.582,0.019C0.572,0.019 0.566,0.01 0.566,-0.008L0.568,-0.01L0.557,-0.254L0.557,-0.361L0.553,-0.373L0.533,-0.371L0.451,-0.371C0.411,-0.371 0.372,-0.368 0.336,-0.361L0.33,-0.363L0.313,-0.361L0.299,-0.361L0.295,-0.357L0.295,-0.15L0.297,-0.014L0.289,-0.01L0.268,-0.012L0.266,-0.01L0.264,-0.01C0.223,-0.016 0.165,-0.02 0.092,-0.02L0.074,-0.02L0.068,-0.025L0.068,-0.059C0.075,-0.109 0.079,-0.159 0.082,-0.209L0.08,-0.211C0.085,-0.243 0.088,-0.274 0.088,-0.307L0.088,-0.334L0.086,-0.344C0.05,-0.342 0.028,-0.34 0.018,-0.336L0.016,-0.336C0.012,-0.337 0.01,-0.341 0.01,-0.348L0.01,-0.365C0.01,-0.416 0.007,-0.462 0,-0.504C0,-0.516 0.021,-0.521 0.063,-0.521C0.063,-0.524 0.07,-0.525 0.086,-0.525L0.086,-0.527L0.088,-0.535L0.08,-0.865L0.078,-0.873C0.078,-0.887 0.102,-0.895 0.15,-0.895C0.15,-0.9 0.197,-0.903 0.291,-0.904Z" style="fill:rgb(169,0,17);fill-rule:nonzero;"/>
        </g>
        <g transform="matrix(12,0,0,12,186.694,388.921)">
            <path d="M0.654,-0.904L0.658,-0.898L0.658,-0.893L0.648,-0.863C0.635,-0.815 0.628,-0.773 0.625,-0.738L0.617,-0.732L0.494,-0.732L0.311,-0.719L0.309,-0.713C0.313,-0.673 0.314,-0.634 0.314,-0.598L0.313,-0.596L0.313,-0.594C0.314,-0.579 0.316,-0.572 0.318,-0.572L0.32,-0.572L0.371,-0.58L0.395,-0.58L0.514,-0.586C0.532,-0.585 0.541,-0.581 0.541,-0.576L0.541,-0.572L0.531,-0.539C0.525,-0.514 0.518,-0.472 0.512,-0.412L0.512,-0.4C0.512,-0.394 0.509,-0.389 0.504,-0.387L0.48,-0.391L0.391,-0.391C0.346,-0.391 0.321,-0.387 0.316,-0.381L0.318,-0.283L0.318,-0.223C0.318,-0.22 0.32,-0.219 0.324,-0.219L0.42,-0.227L0.422,-0.225L0.424,-0.225C0.424,-0.227 0.507,-0.229 0.674,-0.23L0.678,-0.221L0.67,-0.115C0.67,-0.075 0.673,-0.041 0.678,-0.014L0.672,-0.01L0.656,-0.01L0.629,-0.012L0.627,-0.01L0.625,-0.01C0.587,-0.016 0.539,-0.02 0.482,-0.02L0.428,-0.02C0.355,-0.02 0.295,-0.017 0.248,-0.012L0.246,-0.014L0.244,-0.014L0.135,-0.006C0.126,-0.002 0.115,-0 0.102,-0L0.084,-0L0.078,-0.006C0.084,-0.034 0.09,-0.08 0.094,-0.143L0.105,-0.369L0.096,-0.371L0.055,-0.361C0.049,-0.364 0.046,-0.367 0.045,-0.369L0.045,-0.393C0.045,-0.445 0.043,-0.48 0.039,-0.5L0.041,-0.502L0.039,-0.512L0.039,-0.525L0.045,-0.531L0.053,-0.531C0.085,-0.536 0.102,-0.541 0.102,-0.545L0.088,-0.68L0.084,-0.684L0.066,-0.684L0.014,-0.67L0.01,-0.682L0.01,-0.746L0,-0.85C0.004,-0.858 0.031,-0.863 0.082,-0.865C0.105,-0.872 0.133,-0.875 0.166,-0.875C0.186,-0.88 0.224,-0.884 0.279,-0.887L0.322,-0.893L0.354,-0.893C0.43,-0.9 0.53,-0.904 0.654,-0.904Z" style="fill:rgb(169,0,17);fill-rule:nonzero;"/>
        </g>
        <g transform="matrix(12,0,0,12,195.278,388.921)">
            <path d="M0.459,-0.903C0.522,-0.903 0.57,-0.899 0.604,-0.891C0.614,-0.891 0.629,-0.888 0.648,-0.881C0.655,-0.881 0.665,-0.878 0.68,-0.872C0.685,-0.872 0.701,-0.865 0.729,-0.852C0.76,-0.835 0.784,-0.816 0.801,-0.795C0.822,-0.768 0.832,-0.745 0.832,-0.727C0.836,-0.727 0.839,-0.714 0.84,-0.688C0.84,-0.675 0.837,-0.654 0.83,-0.625C0.815,-0.583 0.799,-0.553 0.781,-0.536C0.751,-0.498 0.723,-0.472 0.699,-0.458C0.682,-0.443 0.659,-0.429 0.629,-0.415C0.61,-0.404 0.581,-0.394 0.543,-0.383L0.543,-0.377C0.556,-0.361 0.593,-0.326 0.652,-0.272C0.659,-0.264 0.678,-0.248 0.711,-0.223C0.724,-0.209 0.76,-0.181 0.82,-0.137L0.82,-0.127C0.799,-0.102 0.789,-0.087 0.789,-0.083L0.717,0.001L0.697,0.019L0.695,0.019C0.63,-0.032 0.531,-0.121 0.398,-0.249L0.334,-0.319L0.332,-0.317L0.33,-0.317L0.332,-0.274L0.332,-0.026L0.324,-0.018L0.109,-0.018L0.104,-0.024L0.111,-0.319C0.11,-0.43 0.107,-0.499 0.104,-0.524L0.105,-0.526L0.105,-0.528L0.104,-0.608L0.104,-0.62L0.1,-0.624L0.096,-0.624C0.092,-0.618 0.08,-0.614 0.061,-0.61C0.061,-0.607 0.051,-0.604 0.031,-0.6C0.031,-0.597 0.028,-0.596 0.021,-0.596L0.018,-0.6L0.018,-0.614L0.016,-0.622L0.018,-0.624C0.018,-0.656 0.012,-0.714 0.002,-0.799C0.021,-0.808 0.035,-0.813 0.043,-0.813C0.049,-0.818 0.061,-0.823 0.078,-0.827L0.141,-0.848L0.168,-0.856C0.168,-0.859 0.181,-0.862 0.207,-0.866C0.211,-0.869 0.24,-0.876 0.293,-0.887L0.373,-0.901L0.459,-0.903ZM0.309,-0.697L0.311,-0.678L0.311,-0.641C0.311,-0.609 0.313,-0.577 0.318,-0.543L0.316,-0.535L0.32,-0.514L0.318,-0.506L0.324,-0.5L0.326,-0.5L0.367,-0.51C0.376,-0.51 0.39,-0.513 0.408,-0.52C0.413,-0.52 0.435,-0.527 0.473,-0.541C0.512,-0.557 0.541,-0.575 0.561,-0.596C0.576,-0.613 0.584,-0.629 0.584,-0.645L0.586,-0.652L0.586,-0.666C0.578,-0.684 0.568,-0.696 0.557,-0.701C0.549,-0.708 0.522,-0.715 0.477,-0.721C0.38,-0.714 0.332,-0.707 0.332,-0.701C0.319,-0.701 0.312,-0.7 0.309,-0.697Z" style="fill:rgb(169,0,17);fill-rule:nonzero;"/>
        </g>
        <g transform="matrix(12,0,0,12,205.707,388.921)">
            <path d="M0.654,-0.904L0.658,-0.898L0.658,-0.893L0.648,-0.863C0.635,-0.815 0.628,-0.773 0.625,-0.738L0.617,-0.732L0.494,-0.732L0.311,-0.719L0.309,-0.713C0.313,-0.673 0.314,-0.634 0.314,-0.598L0.313,-0.596L0.313,-0.594C0.314,-0.579 0.316,-0.572 0.318,-0.572L0.32,-0.572L0.371,-0.58L0.395,-0.58L0.514,-0.586C0.532,-0.585 0.541,-0.581 0.541,-0.576L0.541,-0.572L0.531,-0.539C0.525,-0.514 0.518,-0.472 0.512,-0.412L0.512,-0.4C0.512,-0.394 0.509,-0.389 0.504,-0.387L0.48,-0.391L0.391,-0.391C0.346,-0.391 0.321,-0.387 0.316,-0.381L0.318,-0.283L0.318,-0.223C0.318,-0.22 0.32,-0.219 0.324,-0.219L0.42,-0.227L0.422,-0.225L0.424,-0.225C0.424,-0.227 0.507,-0.229 0.674,-0.23L0.678,-0.221L0.67,-0.115C0.67,-0.075 0.673,-0.041 0.678,-0.014L0.672,-0.01L0.656,-0.01L0.629,-0.012L0.627,-0.01L0.625,-0.01C0.587,-0.016 0.539,-0.02 0.482,-0.02L0.428,-0.02C0.355,-0.02 0.295,-0.017 0.248,-0.012L0.246,-0.014L0.244,-0.014L0.135,-0.006C0.126,-0.002 0.115,-0 0.102,-0L0.084,-0L0.078,-0.006C0.084,-0.034 0.09,-0.08 0.094,-0.143L0.105,-0.369L0.096,-0.371L0.055,-0.361C0.049,-0.364 0.046,-0.367 0.045,-0.369L0.045,-0.393C0.045,-0.445 0.043,-0.48 0.039,-0.5L0.041,-0.502L0.039,-0.512L0.039,-0.525L0.045,-0.531L0.053,-0.531C0.085,-0.536 0.102,-0.541 0.102,-0.545L0.088,-0.68L0.084,-0.684L0.066,-0.684L0.014,-0.67L0.01,-0.682L0.01,-0.746L0,-0.85C0.004,-0.858 0.031,-0.863 0.082,-0.865C0.105,-0.872 0.133,-0.875 0.166,-0.875C0.186,-0.88 0.224,-0.884 0.279,-0.887L0.322,-0.893L0.354,-0.893C0.43,-0.9 0.53,-0.904 0.654,-0.904Z" style="fill:rgb(169,0,17);fill-rule:nonzero;"/>
        </g>
        <g transform="matrix(12,0,0,12,214.291,388.921)">
            <path d="M0.252,-0.898L0.254,-0.896L0.254,-0.895C0.254,-0.883 0.23,-0.841 0.18,-0.77C0.162,-0.744 0.147,-0.725 0.133,-0.711L0.106,-0.684L0.096,-0.684L0.004,-0.697L0.002,-0.699L0.002,-0.711C0.023,-0.734 0.049,-0.781 0.081,-0.852C0.085,-0.858 0.089,-0.869 0.092,-0.885C0.098,-0.89 0.104,-0.893 0.112,-0.893L0.202,-0.893C0.222,-0.893 0.238,-0.895 0.252,-0.898Z" style="fill:rgb(169,0,17);fill-rule:nonzero;"/>
        </g>
        <g transform="matrix(12,0,0,12,217.584,388.921)">
            <path d="M0.543,-0.904L0.654,-0.902L0.795,-0.878L0.824,-0.871L0.826,-0.869L0.826,-0.867L0.805,-0.765L0.795,-0.707L0.791,-0.662L0.791,-0.654L0.785,-0.648L0.725,-0.664C0.675,-0.677 0.641,-0.684 0.621,-0.687C0.621,-0.691 0.602,-0.693 0.564,-0.695C0.548,-0.7 0.53,-0.703 0.51,-0.703L0.438,-0.703C0.352,-0.696 0.309,-0.689 0.309,-0.683C0.294,-0.683 0.274,-0.676 0.248,-0.662C0.232,-0.649 0.225,-0.637 0.225,-0.625L0.225,-0.619C0.225,-0.6 0.236,-0.585 0.26,-0.574C0.26,-0.571 0.266,-0.569 0.277,-0.568C0.277,-0.563 0.297,-0.557 0.336,-0.55C0.369,-0.542 0.395,-0.539 0.414,-0.539C0.421,-0.534 0.445,-0.53 0.486,-0.527C0.49,-0.524 0.509,-0.521 0.543,-0.517C0.548,-0.514 0.563,-0.511 0.59,-0.507L0.656,-0.49C0.662,-0.484 0.671,-0.481 0.682,-0.48C0.682,-0.476 0.689,-0.472 0.703,-0.47C0.703,-0.467 0.71,-0.463 0.723,-0.458C0.769,-0.432 0.8,-0.397 0.816,-0.353C0.822,-0.348 0.826,-0.326 0.828,-0.287C0.828,-0.253 0.819,-0.218 0.801,-0.181C0.755,-0.121 0.704,-0.08 0.648,-0.058C0.638,-0.051 0.629,-0.047 0.619,-0.046C0.616,-0.042 0.606,-0.039 0.592,-0.035C0.589,-0.031 0.57,-0.026 0.535,-0.019C0.515,-0.013 0.491,-0.007 0.465,-0.003C0.46,-0.001 0.437,0.001 0.396,0.004L0.359,0.01L0.359,0.008L0.357,0.01L0.33,0.01C0.284,0.01 0.235,0.007 0.184,0L0.125,-0.009C0.117,-0.009 0.1,-0.013 0.074,-0.019C0.063,-0.019 0.057,-0.021 0.057,-0.025C0.057,-0.035 0.061,-0.049 0.068,-0.068C0.082,-0.114 0.1,-0.163 0.121,-0.212C0.124,-0.212 0.127,-0.22 0.131,-0.236L0.141,-0.238L0.145,-0.238C0.203,-0.217 0.263,-0.207 0.324,-0.207L0.336,-0.207C0.403,-0.207 0.45,-0.21 0.475,-0.218C0.494,-0.218 0.521,-0.227 0.555,-0.246C0.561,-0.25 0.565,-0.256 0.568,-0.263C0.568,-0.288 0.524,-0.306 0.436,-0.316C0.43,-0.319 0.407,-0.322 0.367,-0.326C0.367,-0.329 0.349,-0.332 0.313,-0.333C0.31,-0.338 0.293,-0.342 0.262,-0.345C0.262,-0.348 0.249,-0.351 0.225,-0.355C0.225,-0.357 0.215,-0.361 0.195,-0.365C0.193,-0.367 0.184,-0.371 0.17,-0.375C0.17,-0.377 0.163,-0.38 0.15,-0.382C0.15,-0.385 0.143,-0.389 0.129,-0.394L0.1,-0.412C0.069,-0.436 0.05,-0.456 0.043,-0.47C0.031,-0.486 0.021,-0.504 0.014,-0.527C0.006,-0.558 0.001,-0.587 0,-0.613C0.007,-0.638 0.01,-0.658 0.012,-0.673C0.015,-0.674 0.019,-0.682 0.023,-0.699C0.035,-0.72 0.049,-0.742 0.066,-0.765C0.11,-0.805 0.146,-0.83 0.172,-0.839C0.172,-0.842 0.178,-0.844 0.189,-0.845C0.189,-0.849 0.197,-0.853 0.211,-0.855C0.216,-0.861 0.226,-0.865 0.24,-0.865C0.24,-0.869 0.253,-0.873 0.279,-0.876C0.279,-0.88 0.296,-0.883 0.328,-0.886C0.328,-0.889 0.348,-0.892 0.387,-0.896C0.387,-0.898 0.396,-0.9 0.416,-0.902L0.543,-0.904Z" style="fill:rgb(169,0,17);fill-rule:nonzero;"/>
        </g>
        <g transform="matrix(12,0,0,12,234.413,388.921)">
            <path d="M0.367,-0.904L0.379,-0.904C0.384,-0.904 0.387,-0.878 0.389,-0.824C0.391,-0.761 0.401,-0.664 0.418,-0.533C0.42,-0.533 0.422,-0.518 0.424,-0.488C0.43,-0.476 0.434,-0.456 0.434,-0.43C0.44,-0.419 0.443,-0.402 0.443,-0.379C0.45,-0.368 0.453,-0.352 0.453,-0.33C0.46,-0.319 0.463,-0.304 0.463,-0.285C0.465,-0.285 0.467,-0.278 0.471,-0.264L0.473,-0.264C0.475,-0.264 0.477,-0.27 0.477,-0.283L0.52,-0.445L0.529,-0.482C0.532,-0.482 0.535,-0.493 0.537,-0.514C0.541,-0.514 0.545,-0.525 0.547,-0.547C0.551,-0.547 0.554,-0.559 0.557,-0.582C0.562,-0.582 0.565,-0.592 0.566,-0.611C0.569,-0.611 0.573,-0.622 0.578,-0.645L0.627,-0.789C0.63,-0.789 0.633,-0.798 0.635,-0.816C0.64,-0.818 0.643,-0.826 0.643,-0.838C0.649,-0.847 0.658,-0.867 0.668,-0.898L0.676,-0.904L0.697,-0.904L0.74,-0.895L0.844,-0.865L0.873,-0.852L0.869,-0.695L0.867,-0.684C0.87,-0.604 0.875,-0.538 0.881,-0.484C0.881,-0.471 0.884,-0.444 0.891,-0.404L0.91,-0.279C0.923,-0.208 0.936,-0.145 0.949,-0.09L0.959,-0.051L0.963,-0.027C0.963,-0.019 0.929,-0.01 0.861,0.001C0.861,0.005 0.842,0.007 0.803,0.009C0.789,0.014 0.776,0.017 0.766,0.017L0.758,0.017L0.75,0.009L0.75,-0.01C0.743,-0.038 0.74,-0.061 0.74,-0.076C0.733,-0.101 0.729,-0.132 0.729,-0.17C0.724,-0.177 0.721,-0.208 0.719,-0.264C0.714,-0.29 0.709,-0.371 0.703,-0.508L0.705,-0.52C0.704,-0.53 0.702,-0.535 0.699,-0.535L0.688,-0.5L0.676,-0.453C0.663,-0.415 0.646,-0.359 0.627,-0.285C0.62,-0.268 0.617,-0.251 0.615,-0.234C0.611,-0.234 0.607,-0.222 0.605,-0.197C0.602,-0.197 0.598,-0.184 0.594,-0.156C0.59,-0.156 0.587,-0.145 0.586,-0.121C0.582,-0.119 0.578,-0.104 0.574,-0.074C0.571,-0.072 0.568,-0.06 0.566,-0.039C0.549,-0.033 0.529,-0.029 0.504,-0.029C0.497,-0.026 0.477,-0.021 0.441,-0.016L0.406,-0.008C0.406,-0.006 0.395,-0.002 0.373,0.001C0.373,0.004 0.37,0.005 0.363,0.005L0.355,-0.029C0.352,-0.029 0.347,-0.048 0.34,-0.084C0.333,-0.101 0.329,-0.119 0.326,-0.139C0.323,-0.146 0.32,-0.16 0.316,-0.182C0.313,-0.182 0.31,-0.199 0.307,-0.232C0.304,-0.232 0.3,-0.249 0.297,-0.281C0.293,-0.281 0.291,-0.298 0.289,-0.332C0.284,-0.343 0.278,-0.386 0.271,-0.461L0.271,-0.475L0.268,-0.479C0.26,-0.446 0.255,-0.421 0.254,-0.402C0.249,-0.398 0.246,-0.378 0.244,-0.342C0.24,-0.334 0.235,-0.308 0.23,-0.262L0.223,-0.18C0.218,-0.18 0.215,-0.115 0.215,0.013L0.213,0.015L0.205,0.015C0.191,0.01 0.178,0.007 0.164,0.005C0.164,0.001 0.133,-0.006 0.07,-0.016C0.07,-0.019 0.049,-0.021 0.006,-0.023L0,-0.035C0.005,-0.055 0.009,-0.085 0.014,-0.125C0.029,-0.229 0.04,-0.292 0.047,-0.316C0.047,-0.33 0.05,-0.349 0.057,-0.375L0.066,-0.424L0.086,-0.514L0.096,-0.557C0.104,-0.587 0.107,-0.605 0.107,-0.613C0.112,-0.613 0.116,-0.626 0.117,-0.652C0.121,-0.652 0.125,-0.665 0.129,-0.691C0.132,-0.691 0.137,-0.712 0.146,-0.752C0.158,-0.784 0.164,-0.804 0.164,-0.813C0.169,-0.813 0.173,-0.825 0.176,-0.85C0.197,-0.86 0.217,-0.866 0.236,-0.869C0.236,-0.872 0.246,-0.875 0.266,-0.877C0.266,-0.882 0.277,-0.885 0.301,-0.887C0.31,-0.892 0.332,-0.897 0.367,-0.904Z" style="fill:rgb(169,0,17);fill-rule:nonzero;"/>
        </g>
        <g transform="matrix(12,0,0,12,246.395,388.921)">
            <path d="M0.188,-0.91L0.193,-0.91C0.196,-0.91 0.2,-0.898 0.205,-0.875C0.207,-0.875 0.209,-0.865 0.211,-0.847C0.215,-0.847 0.219,-0.834 0.223,-0.808C0.225,-0.808 0.229,-0.798 0.232,-0.777C0.236,-0.777 0.238,-0.769 0.24,-0.753C0.244,-0.75 0.25,-0.734 0.26,-0.705L0.281,-0.652C0.283,-0.652 0.287,-0.644 0.293,-0.628C0.309,-0.596 0.326,-0.565 0.346,-0.537L0.348,-0.537C0.392,-0.616 0.43,-0.7 0.463,-0.789C0.465,-0.789 0.468,-0.798 0.473,-0.816C0.476,-0.816 0.479,-0.824 0.48,-0.841C0.485,-0.841 0.489,-0.851 0.49,-0.871C0.49,-0.88 0.516,-0.884 0.566,-0.884L0.643,-0.894C0.643,-0.896 0.655,-0.899 0.68,-0.902C0.68,-0.905 0.685,-0.908 0.695,-0.91L0.703,-0.91C0.707,-0.91 0.709,-0.907 0.709,-0.902L0.688,-0.841L0.668,-0.791C0.6,-0.615 0.529,-0.461 0.455,-0.33C0.421,-0.268 0.376,-0.196 0.32,-0.113C0.281,-0.056 0.243,-0.002 0.205,0.047L0.193,0.059L0.191,0.059C0.163,0.031 0.121,0 0.066,-0.035L0.037,-0.052L0.037,-0.06C0.037,-0.066 0.051,-0.085 0.08,-0.119L0.152,-0.216C0.201,-0.286 0.225,-0.323 0.225,-0.328C0.219,-0.332 0.203,-0.354 0.178,-0.394C0.158,-0.428 0.138,-0.467 0.117,-0.511L0.072,-0.613L0.049,-0.673L0.039,-0.703C0.02,-0.76 0.01,-0.791 0.01,-0.796L0,-0.832L0,-0.835C0.009,-0.844 0.025,-0.852 0.047,-0.861L0.096,-0.88C0.13,-0.893 0.16,-0.903 0.188,-0.91Z" style="fill:rgb(169,0,17);fill-rule:nonzero;"/>
        </g>
        <g transform="matrix(12,0,0,12,261.547,388.921)">
            <path d="M0.367,-0.904L0.379,-0.904C0.384,-0.904 0.387,-0.878 0.389,-0.824C0.391,-0.761 0.401,-0.664 0.418,-0.533C0.42,-0.533 0.422,-0.518 0.424,-0.488C0.43,-0.476 0.434,-0.456 0.434,-0.43C0.44,-0.419 0.443,-0.402 0.443,-0.379C0.45,-0.368 0.453,-0.352 0.453,-0.33C0.46,-0.319 0.463,-0.304 0.463,-0.285C0.465,-0.285 0.467,-0.278 0.471,-0.264L0.473,-0.264C0.475,-0.264 0.477,-0.27 0.477,-0.283L0.52,-0.445L0.529,-0.482C0.532,-0.482 0.535,-0.493 0.537,-0.514C0.541,-0.514 0.545,-0.525 0.547,-0.547C0.551,-0.547 0.554,-0.559 0.557,-0.582C0.562,-0.582 0.565,-0.592 0.566,-0.611C0.569,-0.611 0.573,-0.622 0.578,-0.645L0.627,-0.789C0.63,-0.789 0.633,-0.798 0.635,-0.816C0.64,-0.818 0.643,-0.826 0.643,-0.838C0.649,-0.847 0.658,-0.867 0.668,-0.898L0.676,-0.904L0.697,-0.904L0.74,-0.895L0.844,-0.865L0.873,-0.852L0.869,-0.695L0.867,-0.684C0.87,-0.604 0.875,-0.538 0.881,-0.484C0.881,-0.471 0.884,-0.444 0.891,-0.404L0.91,-0.279C0.923,-0.208 0.936,-0.145 0.949,-0.09L0.959,-0.051L0.963,-0.027C0.963,-0.019 0.929,-0.01 0.861,0.001C0.861,0.005 0.842,0.007 0.803,0.009C0.789,0.014 0.776,0.017 0.766,0.017L0.758,0.017L0.75,0.009L0.75,-0.01C0.743,-0.038 0.74,-0.061 0.74,-0.076C0.733,-0.101 0.729,-0.132 0.729,-0.17C0.724,-0.177 0.721,-0.208 0.719,-0.264C0.714,-0.29 0.709,-0.371 0.703,-0.508L0.705,-0.52C0.704,-0.53 0.702,-0.535 0.699,-0.535L0.688,-0.5L0.676,-0.453C0.663,-0.415 0.646,-0.359 0.627,-0.285C0.62,-0.268 0.617,-0.251 0.615,-0.234C0.611,-0.234 0.607,-0.222 0.605,-0.197C0.602,-0.197 0.598,-0.184 0.594,-0.156C0.59,-0.156 0.587,-0.145 0.586,-0.121C0.582,-0.119 0.578,-0.104 0.574,-0.074C0.571,-0.072 0.568,-0.06 0.566,-0.039C0.549,-0.033 0.529,-0.029 0.504,-0.029C0.497,-0.026 0.477,-0.021 0.441,-0.016L0.406,-0.008C0.406,-0.006 0.395,-0.002 0.373,0.001C0.373,0.004 0.37,0.005 0.363,0.005L0.355,-0.029C0.352,-0.029 0.347,-0.048 0.34,-0.084C0.333,-0.101 0.329,-0.119 0.326,-0.139C0.323,-0.146 0.32,-0.16 0.316,-0.182C0.313,-0.182 0.31,-0.199 0.307,-0.232C0.304,-0.232 0.3,-0.249 0.297,-0.281C0.293,-0.281 0.291,-0.298 0.289,-0.332C0.284,-0.343 0.278,-0.386 0.271,-0.461L0.271,-0.475L0.268,-0.479C0.26,-0.446 0.255,-0.421 0.254,-0.402C0.249,-0.398 0.246,-0.378 0.244,-0.342C0.24,-0.334 0.235,-0.308 0.23,-0.262L0.223,-0.18C0.218,-0.18 0.215,-0.115 0.215,0.013L0.213,0.015L0.205,0.015C0.191,0.01 0.178,0.007 0.164,0.005C0.164,0.001 0.133,-0.006 0.07,-0.016C0.07,-0.019 0.049,-0.021 0.006,-0.023L0,-0.035C0.005,-0.055 0.009,-0.085 0.014,-0.125C0.029,-0.229 0.04,-0.292 0.047,-0.316C0.047,-0.33 0.05,-0.349 0.057,-0.375L0.066,-0.424L0.086,-0.514L0.096,-0.557C0.104,-0.587 0.107,-0.605 0.107,-0.613C0.112,-0.613 0.116,-0.626 0.117,-0.652C0.121,-0.652 0.125,-0.665 0.129,-0.691C0.132,-0.691 0.137,-0.712 0.146,-0.752C0.158,-0.784 0.164,-0.804 0.164,-0.813C0.169,-0.813 0.173,-0.825 0.176,-0.85C0.197,-0.86 0.217,-0.866 0.236,-0.869C0.236,-0.872 0.246,-0.875 0.266,-0.877C0.266,-0.882 0.277,-0.885 0.301,-0.887C0.31,-0.892 0.332,-0.897 0.367,-0.904Z" style="fill:rgb(169,0,17);fill-rule:nonzero;"/>
        </g>
        <g transform="matrix(12,0,0,12,273.53,388.921)">
            <path d="M0.416,-0.906C0.468,-0.906 0.51,-0.899 0.541,-0.885C0.547,-0.885 0.552,-0.882 0.557,-0.877C0.563,-0.876 0.573,-0.87 0.588,-0.859L0.59,-0.859L0.641,-0.875L0.67,-0.885C0.674,-0.885 0.682,-0.888 0.693,-0.895L0.725,-0.906C0.74,-0.881 0.755,-0.84 0.77,-0.781C0.783,-0.737 0.79,-0.702 0.793,-0.676C0.797,-0.676 0.799,-0.655 0.801,-0.613C0.803,-0.613 0.805,-0.599 0.807,-0.57L0.805,-0.568L0.807,-0.559L0.807,-0.555L0.799,-0.447L0.787,-0.375C0.784,-0.375 0.78,-0.361 0.775,-0.334C0.772,-0.334 0.77,-0.324 0.768,-0.305C0.763,-0.305 0.76,-0.296 0.758,-0.279C0.755,-0.279 0.751,-0.271 0.746,-0.254L0.729,-0.217C0.708,-0.179 0.679,-0.138 0.641,-0.094C0.6,-0.059 0.568,-0.036 0.545,-0.025C0.519,-0.011 0.496,-0.002 0.479,0.001C0.479,0.005 0.465,0.008 0.438,0.009C0.438,0.012 0.427,0.014 0.406,0.017L0.404,0.015L0.391,0.017L0.367,0.017L0.34,0.015L0.334,0.017C0.31,0.009 0.289,0.005 0.271,0.005C0.271,0.003 0.26,-0.001 0.236,-0.006C0.236,-0.008 0.228,-0.011 0.211,-0.016C0.211,-0.019 0.205,-0.022 0.193,-0.023C0.193,-0.026 0.182,-0.033 0.16,-0.045C0.125,-0.07 0.098,-0.098 0.078,-0.129C0.063,-0.15 0.053,-0.168 0.047,-0.184C0.045,-0.184 0.043,-0.19 0.039,-0.203C0.037,-0.203 0.032,-0.217 0.023,-0.244C0.016,-0.269 0.012,-0.288 0.012,-0.303C0.007,-0.303 0.003,-0.341 0,-0.418C0.003,-0.478 0.007,-0.52 0.014,-0.543L0.033,-0.609C0.058,-0.677 0.093,-0.733 0.139,-0.779C0.164,-0.806 0.189,-0.827 0.215,-0.844C0.251,-0.867 0.286,-0.884 0.32,-0.895L0.355,-0.904L0.416,-0.906ZM0.213,-0.463L0.213,-0.402C0.219,-0.362 0.226,-0.335 0.232,-0.322C0.232,-0.318 0.239,-0.304 0.252,-0.281C0.274,-0.256 0.291,-0.24 0.303,-0.234C0.32,-0.224 0.339,-0.219 0.357,-0.219L0.381,-0.217C0.411,-0.217 0.432,-0.221 0.443,-0.229C0.45,-0.229 0.463,-0.236 0.482,-0.25C0.511,-0.276 0.529,-0.297 0.535,-0.313C0.543,-0.321 0.554,-0.344 0.566,-0.381C0.576,-0.405 0.583,-0.44 0.59,-0.488L0.59,-0.584C0.583,-0.619 0.576,-0.649 0.568,-0.672L0.561,-0.672C0.543,-0.659 0.527,-0.652 0.514,-0.652C0.497,-0.672 0.472,-0.686 0.439,-0.693L0.375,-0.693C0.353,-0.686 0.334,-0.677 0.318,-0.668C0.273,-0.63 0.25,-0.604 0.25,-0.59C0.242,-0.58 0.232,-0.558 0.223,-0.525C0.216,-0.496 0.213,-0.475 0.213,-0.463Z" style="fill:rgb(169,0,17);fill-rule:nonzero;"/>
        </g>
        <g transform="matrix(12,0,0,12,283.496,388.921)">
            <path d="M0.227,-0.909L0.238,-0.909C0.242,-0.909 0.245,-0.902 0.25,-0.888C0.253,-0.888 0.256,-0.88 0.26,-0.864L0.346,-0.681L0.441,-0.507C0.455,-0.479 0.464,-0.466 0.467,-0.466L0.471,-0.466L0.48,-0.638C0.484,-0.654 0.487,-0.692 0.49,-0.753C0.494,-0.753 0.496,-0.78 0.498,-0.835C0.498,-0.847 0.509,-0.853 0.531,-0.853L0.623,-0.88L0.65,-0.89L0.672,-0.899C0.678,-0.899 0.684,-0.902 0.689,-0.907L0.695,-0.907L0.701,-0.901C0.698,-0.894 0.695,-0.858 0.691,-0.794C0.688,-0.785 0.685,-0.741 0.682,-0.663C0.678,-0.65 0.673,-0.55 0.666,-0.362L0.662,-0.062L0.66,-0.04L0.662,-0.038L0.662,-0.036C0.662,-0.027 0.643,-0.021 0.605,-0.017L0.549,-0.003C0.549,0 0.538,0.003 0.516,0.005C0.516,0.008 0.505,0.012 0.482,0.017C0.481,0.021 0.477,0.022 0.471,0.022C0.463,0.022 0.459,0.008 0.459,-0.021L0.457,-0.112C0.451,-0.117 0.435,-0.139 0.41,-0.179C0.34,-0.288 0.279,-0.392 0.229,-0.489C0.226,-0.489 0.223,-0.495 0.221,-0.507C0.218,-0.507 0.215,-0.513 0.213,-0.524L0.211,-0.526L0.209,-0.526L0.207,-0.524L0.205,-0.524L0.207,-0.491L0.207,-0.433C0.207,-0.368 0.21,-0.293 0.217,-0.208L0.217,-0.204L0.215,-0.204L0.217,-0.151L0.217,-0.11L0.219,-0.03L0.221,-0.028L0.221,-0.026C0.221,-0.015 0.194,-0.008 0.141,-0.005C0.128,0.002 0.112,0.005 0.092,0.005L0.006,0.03C0.003,0.03 0.001,0.028 0,0.022C0.006,0.022 0.009,-0.062 0.012,-0.229C0.016,-0.28 0.018,-0.377 0.018,-0.521L0.018,-0.634C0.018,-0.729 0.015,-0.798 0.01,-0.843C0.01,-0.853 0.031,-0.86 0.072,-0.862C0.083,-0.867 0.099,-0.871 0.121,-0.874C0.121,-0.877 0.132,-0.88 0.154,-0.884C0.154,-0.887 0.164,-0.89 0.184,-0.892C0.184,-0.895 0.194,-0.898 0.215,-0.903C0.216,-0.907 0.22,-0.909 0.227,-0.909Z" style="fill:rgb(169,0,17);fill-rule:nonzero;"/>
        </g>
        <g transform="matrix(12,0,0,12,292.239,388.921)">
            <path d="M0.654,-0.904L0.658,-0.898L0.658,-0.893L0.648,-0.863C0.635,-0.815 0.628,-0.773 0.625,-0.738L0.617,-0.732L0.494,-0.732L0.311,-0.719L0.309,-0.713C0.313,-0.673 0.314,-0.634 0.314,-0.598L0.313,-0.596L0.313,-0.594C0.314,-0.579 0.316,-0.572 0.318,-0.572L0.32,-0.572L0.371,-0.58L0.395,-0.58L0.514,-0.586C0.532,-0.585 0.541,-0.581 0.541,-0.576L0.541,-0.572L0.531,-0.539C0.525,-0.514 0.518,-0.472 0.512,-0.412L0.512,-0.4C0.512,-0.394 0.509,-0.389 0.504,-0.387L0.48,-0.391L0.391,-0.391C0.346,-0.391 0.321,-0.387 0.316,-0.381L0.318,-0.283L0.318,-0.223C0.318,-0.22 0.32,-0.219 0.324,-0.219L0.42,-0.227L0.422,-0.225L0.424,-0.225C0.424,-0.227 0.507,-0.229 0.674,-0.23L0.678,-0.221L0.67,-0.115C0.67,-0.075 0.673,-0.041 0.678,-0.014L0.672,-0.01L0.656,-0.01L0.629,-0.012L0.627,-0.01L0.625,-0.01C0.587,-0.016 0.539,-0.02 0.482,-0.02L0.428,-0.02C0.355,-0.02 0.295,-0.017 0.248,-0.012L0.246,-0.014L0.244,-0.014L0.135,-0.006C0.126,-0.002 0.115,-0 0.102,-0L0.084,-0L0.078,-0.006C0.084,-0.034 0.09,-0.08 0.094,-0.143L0.105,-0.369L0.096,-0.371L0.055,-0.361C0.049,-0.364 0.046,-0.367 0.045,-0.369L0.045,-0.393C0.045,-0.445 0.043,-0.48 0.039,-0.5L0.041,-0.502L0.039,-0.512L0.039,-0.525L0.045,-0.531L0.053,-0.531C0.085,-0.536 0.102,-0.541 0.102,-0.545L0.088,-0.68L0.084,-0.684L0.066,-0.684L0.014,-0.67L0.01,-0.682L0.01,-0.746L0,-0.85C0.004,-0.858 0.031,-0.863 0.082,-0.865C0.105,-0.872 0.133,-0.875 0.166,-0.875C0.186,-0.88 0.224,-0.884 0.279,-0.887L0.322,-0.893L0.354,-0.893C0.43,-0.9 0.53,-0.904 0.654,-0.904Z" style="fill:rgb(169,0,17);fill-rule:nonzero;"/>
        </g>
        <g transform="matrix(12,0,0,12,300.823,388.921)">
            <path d="M0.188,-0.91L0.193,-0.91C0.196,-0.91 0.2,-0.898 0.205,-0.875C0.207,-0.875 0.209,-0.865 0.211,-0.847C0.215,-0.847 0.219,-0.834 0.223,-0.808C0.225,-0.808 0.229,-0.798 0.232,-0.777C0.236,-0.777 0.238,-0.769 0.24,-0.753C0.244,-0.75 0.25,-0.734 0.26,-0.705L0.281,-0.652C0.283,-0.652 0.287,-0.644 0.293,-0.628C0.309,-0.596 0.326,-0.565 0.346,-0.537L0.348,-0.537C0.392,-0.616 0.43,-0.7 0.463,-0.789C0.465,-0.789 0.468,-0.798 0.473,-0.816C0.476,-0.816 0.479,-0.824 0.48,-0.841C0.485,-0.841 0.489,-0.851 0.49,-0.871C0.49,-0.88 0.516,-0.884 0.566,-0.884L0.643,-0.894C0.643,-0.896 0.655,-0.899 0.68,-0.902C0.68,-0.905 0.685,-0.908 0.695,-0.91L0.703,-0.91C0.707,-0.91 0.709,-0.907 0.709,-0.902L0.688,-0.841L0.668,-0.791C0.6,-0.615 0.529,-0.461 0.455,-0.33C0.421,-0.268 0.376,-0.196 0.32,-0.113C0.281,-0.056 0.243,-0.002 0.205,0.047L0.193,0.059L0.191,0.059C0.163,0.031 0.121,0 0.066,-0.035L0.037,-0.052L0.037,-0.06C0.037,-0.066 0.051,-0.085 0.08,-0.119L0.152,-0.216C0.201,-0.286 0.225,-0.323 0.225,-0.328C0.219,-0.332 0.203,-0.354 0.178,-0.394C0.158,-0.428 0.138,-0.467 0.117,-0.511L0.072,-0.613L0.049,-0.673L0.039,-0.703C0.02,-0.76 0.01,-0.791 0.01,-0.796L0,-0.832L0,-0.835C0.009,-0.844 0.025,-0.852 0.047,-0.861L0.096,-0.88C0.13,-0.893 0.16,-0.903 0.188,-0.91Z" style="fill:rgb(169,0,17);fill-rule:nonzero;"/>
        </g>
        <g transform="matrix(12,0,0,12,309.489,388.921)">
            <path d="M0.268,-0.9L0.27,-0.898L0.29,-0.9L0.329,-0.9C0.371,-0.9 0.416,-0.897 0.463,-0.891C0.513,-0.884 0.547,-0.878 0.567,-0.871C0.599,-0.864 0.635,-0.849 0.676,-0.828C0.695,-0.817 0.718,-0.8 0.743,-0.775C0.765,-0.742 0.777,-0.715 0.78,-0.693L0.78,-0.643C0.773,-0.628 0.77,-0.617 0.77,-0.609C0.756,-0.581 0.737,-0.553 0.713,-0.525C0.658,-0.475 0.61,-0.441 0.567,-0.424C0.567,-0.421 0.56,-0.418 0.547,-0.414C0.547,-0.411 0.54,-0.408 0.526,-0.404C0.526,-0.401 0.517,-0.398 0.5,-0.396C0.5,-0.393 0.491,-0.389 0.471,-0.385C0.471,-0.382 0.461,-0.379 0.44,-0.375C0.439,-0.372 0.42,-0.368 0.383,-0.363L0.381,-0.361L0.379,-0.361L0.374,-0.363C0.366,-0.363 0.362,-0.357 0.362,-0.346C0.36,-0.29 0.354,-0.262 0.346,-0.262L0.249,-0.262C0.196,-0.255 0.162,-0.246 0.147,-0.234L0.143,-0.234L0.137,-0.24C0.139,-0.243 0.141,-0.259 0.143,-0.289C0.147,-0.293 0.151,-0.314 0.155,-0.352C0.158,-0.361 0.162,-0.382 0.165,-0.414C0.167,-0.415 0.17,-0.432 0.172,-0.465C0.174,-0.465 0.176,-0.473 0.178,-0.488C0.18,-0.501 0.185,-0.508 0.192,-0.508C0.235,-0.508 0.266,-0.511 0.284,-0.518C0.298,-0.519 0.33,-0.526 0.379,-0.539C0.393,-0.546 0.405,-0.549 0.415,-0.549C0.417,-0.553 0.429,-0.558 0.452,-0.563C0.452,-0.566 0.458,-0.568 0.471,-0.568C0.476,-0.574 0.484,-0.579 0.495,-0.582C0.495,-0.586 0.499,-0.588 0.506,-0.588L0.532,-0.611L0.54,-0.637C0.53,-0.655 0.515,-0.664 0.493,-0.664C0.493,-0.668 0.465,-0.672 0.409,-0.676C0.409,-0.679 0.379,-0.681 0.321,-0.682L0.317,-0.682C0.3,-0.682 0.271,-0.678 0.231,-0.672C0.222,-0.672 0.18,-0.662 0.104,-0.643L0.079,-0.633C0.072,-0.633 0.064,-0.63 0.055,-0.623C0.051,-0.623 0.037,-0.616 0.012,-0.602L0.002,-0.605L0.004,-0.668L0.004,-0.674L0.028,-0.779C0.03,-0.779 0.033,-0.791 0.038,-0.814C0.04,-0.814 0.043,-0.825 0.047,-0.846C0.049,-0.846 0.053,-0.851 0.057,-0.861L0.092,-0.871C0.118,-0.878 0.141,-0.882 0.163,-0.885C0.163,-0.889 0.185,-0.891 0.229,-0.893L0.268,-0.9ZM0.266,-0.186L0.278,-0.186C0.303,-0.186 0.329,-0.182 0.356,-0.174C0.356,-0.172 0.362,-0.169 0.375,-0.164C0.393,-0.15 0.404,-0.137 0.409,-0.125L0.409,-0.09C0.404,-0.061 0.38,-0.031 0.334,-0L0.313,0.012C0.271,0.03 0.236,0.039 0.208,0.039L0.198,0.039C0.153,0.033 0.127,0.024 0.12,0.014C0.116,0.014 0.108,0.006 0.096,-0.01C0.093,-0.01 0.091,-0.016 0.09,-0.027C0.087,-0.027 0.084,-0.035 0.083,-0.049C0.083,-0.074 0.097,-0.101 0.125,-0.131C0.148,-0.15 0.163,-0.16 0.17,-0.16C0.17,-0.165 0.179,-0.168 0.196,-0.17C0.196,-0.175 0.219,-0.18 0.266,-0.186Z" style="fill:rgb(169,0,17);fill-rule:nonzero;"/>
        </g>
    </g>
</svg>
